<?xml version="1.0" encoding="utf-8"?>
<!-- Generator: Adobe Illustrator 17.0.0, SVG Export Plug-In . SVG Version: 6.00 Build 0)  -->
<!DOCTYPE svg PUBLIC "-//W3C//DTD SVG 1.1//EN" "http://www.w3.org/Graphics/SVG/1.1/DTD/svg11.dtd">
<svg version="1.1" id="Capa_1" xmlns="http://www.w3.org/2000/svg" xmlns:xlink="http://www.w3.org/1999/xlink" x="0px" y="0px"
	 width="512px" height="512px" viewBox="0 0 512 512" enable-background="new 0 0 512 512" xml:space="preserve">
<g>
	
		<linearGradient id="SVGID_1_" gradientUnits="userSpaceOnUse" x1="-185.2466" y1="215.8392" x2="330.2023" y2="513.4335" gradientTransform="matrix(1 0 0 -1 194 617)">
		<stop  offset="0" style="stop-color:#D2DEFF;stop-opacity:0"/>
		<stop  offset="1" style="stop-color:#B7C5FF"/>
	</linearGradient>
	<path fill="url(#SVGID_1_)" d="M418.32,2.5c-55.666-9.521-178.298,12.183-200.004,105.017
		c-14.432,61.722-14.007,112.075-50.427,113.02c-21.67,0.562-32.97-44.31-62.889-48.001c-39.047-4.817-66.145,27.695-83.057,57.138
		c-37.205,64.772-25.571,174.918,23.354,228.632c118.488,130.086,259.197-5.952,319.358-112.309
		c38.585-68.213,125.637-123.352,143.767-200.248C523.599,81.373,489.919,14.746,418.32,2.5L418.32,2.5z"/>
	<g>
		<g>
			<path fill="#FF5BA8" d="M87.163,60.87c-7.88,0-14.291-6.411-14.291-14.291c0-7.881,6.411-14.292,14.291-14.292
				c7.881,0,14.292,6.411,14.292,14.292C101.455,54.459,95.044,60.87,87.163,60.87z M87.163,42.287
				c-2.366,0-4.291,1.926-4.291,4.292s1.925,4.291,4.291,4.291s4.292-1.925,4.292-4.291S89.529,42.287,87.163,42.287z"/>
			<path fill="#01ECA5" d="M132.698,51.87c-2.762,0-5-2.238-5-5c0-3.309-2.691-6-6-6c-2.762,0-5-2.238-5-5s2.238-5,5-5
				c3.309,0,6-2.691,6-6c0-2.762,2.238-5,5-5s5,2.238,5,5c0,3.309,2.691,6,6,6c2.762,0,5,2.238,5,5s-2.238,5-5,5
				c-3.309,0-6,2.691-6,6C137.698,49.632,135.46,51.87,132.698,51.87z"/>
			<path fill="#01ECA5" d="M428.693,494.13c-2.762,0-5-2.238-5-5c0-3.309-2.691-6-6-6c-2.762,0-5-2.238-5-5s2.238-5,5-5
				c3.309,0,6-2.691,6-6c0-2.762,2.238-5,5-5s5,2.238,5,5c0,3.309,2.691,6,6,6c2.762,0,5,2.238,5,5s-2.238,5-5,5
				c-3.309,0-6,2.691-6,6C433.693,491.892,431.455,494.13,428.693,494.13z"/>
			<path fill="#6583FE" d="M49.277,471.754c-2.762,0-5-2.238-5-5c0-3.309-2.691-6-6-6c-2.762,0-5-2.238-5-5c0-2.762,2.238-5,5-5
				c3.309,0,6-2.691,6-6c0-2.762,2.238-5,5-5s5,2.238,5,5c0,3.309,2.691,6,6,6c2.762,0,5,2.238,5,5c0,2.762-2.238,5-5,5
				c-3.309,0-6,2.691-6,6C54.277,469.516,52.039,471.754,49.277,471.754z"/>
			<path fill="#FF5BA8" d="M467.471,471.421c-2.762,0-5-2.238-5-5c0-3.309-2.691-6-6-6c-2.762,0-5-2.238-5-5s2.238-5,5-5
				c3.309,0,6-2.691,6-6c0-2.762,2.238-5,5-5s5,2.238,5,5c0,3.309,2.691,6,6,6c2.762,0,5,2.238,5,5s-2.238,5-5,5
				c-3.309,0-6,2.691-6,6C472.471,469.183,470.232,471.421,467.471,471.421z"/>
		</g>
	</g>
	<g>
		<g>
			<g>
				<path fill="#FFFFFF" d="M410.673,395.062H101.327c-6.424,0-11.631-5.208-11.631-11.631V139.742
					c0-6.424,5.208-11.631,11.631-11.631h309.346c6.424,0,11.631,5.208,11.631,11.631v243.688
					C422.305,389.855,417.098,395.062,410.673,395.062z"/>
				<g>
					<path fill="#FF5BA8" d="M384.482,314.941H127.518c-4.283,0-7.754-3.472-7.754-7.754v-84.636c0-4.283,3.472-7.754,7.754-7.754
						h256.964c4.283,0,7.754,3.472,7.754,7.754v84.636C392.236,311.469,388.764,314.941,384.482,314.941L384.482,314.941z"/>
					<path fill="#6583FE" d="M422.305,181.858v-42.115c0-6.424-5.208-11.631-11.631-11.631H101.327
						c-6.424,0-11.631,5.208-11.631,11.631v42.115H422.305z"/>
				</g>
			</g>
			<g>
				<g>
					<circle fill="#FFFFFF" cx="123.886" cy="156.725" r="8.453"/>
					<circle fill="#FFFFFF" cx="150.872" cy="156.725" r="8.453"/>
					<circle fill="#FFFFFF" cx="177.856" cy="156.725" r="8.453"/>
				</g>
				<path fill="#FFFFFF" d="M392.69,166.221H287.109v-18.994H392.69c2.141,0,3.877,1.736,3.877,3.877v11.24
					C396.567,164.486,394.831,166.221,392.69,166.221L392.69,166.221z"/>
				<path fill="#01ECA5" d="M287.629,147.469c-4.099-4.099-10.768-4.099-14.867,0s-4.099,10.768,0,14.867
					c3.13,3.13,7.757,3.862,11.595,2.212l3.372,3.372c1.514,1.514,3.969,1.514,5.483,0c1.514-1.514,1.514-3.969,0-5.483
					l-3.372-3.372C291.49,155.225,290.759,150.599,287.629,147.469z M278.245,152.952c1.076-1.076,2.826-1.076,3.901,0
					c1.076,1.076,1.076,2.826,0,3.901c-1.076,1.076-2.826,1.076-3.901,0C277.169,155.777,277.169,154.027,278.245,152.952z"/>
			</g>
		</g>
		<g>
			<g>
				<path fill="#FFFFFF" d="M358.968,421.387H153.032c-4.283,0-7.754-3.472-7.754-7.754V261.557c0-4.283,3.472-7.754,7.754-7.754
					h205.936c4.283,0,7.754,3.472,7.754,7.754v152.075C366.722,417.915,363.251,421.387,358.968,421.387z"/>
				<path fill="#01ECA5" d="M366.722,285.218H145.278v-23.66c0-4.283,3.472-7.754,7.754-7.754h205.936
					c4.283,0,7.754,3.472,7.754,7.754V285.218z"/>
			</g>
			<path fill="#2626BC" d="M410.674,124.234H101.326c-8.551,0-15.508,6.957-15.508,15.508v243.688
				c0,8.551,6.957,15.508,15.508,15.508h40.075v14.693c0,6.414,5.218,11.631,11.631,11.631h205.936
				c6.414,0,11.631-5.217,11.631-11.631v-14.693h40.075c8.551,0,15.508-6.957,15.508-15.508V139.742
				C426.182,131.191,419.225,124.234,410.674,124.234z M362.845,413.633c0,2.138-1.739,3.877-3.877,3.877H153.032
				c-2.138,0-3.877-1.739-3.877-3.877V261.557c0-2.138,1.739-3.877,3.877-3.877h205.936c2.138,0,3.877,1.739,3.877,3.877V413.633z
				 M418.428,383.431c0,4.276-3.479,7.754-7.754,7.754h-40.075V261.557c0-6.414-5.217-11.631-11.631-11.631H153.032
				c-6.413,0-11.631,5.218-11.631,11.631v129.628h-40.075c-4.276,0-7.754-3.479-7.754-7.754V139.742
				c0-4.276,3.479-7.754,7.754-7.754h309.347c4.276,0,7.754,3.479,7.754,7.754L418.428,383.431L418.428,383.431z"/>
		</g>
		<g>
			<path fill="#F991C5" d="M234.055,370.498h-38.637c-4.283,0-7.754-3.472-7.754-7.754v-16.506c0-4.283,3.472-7.754,7.754-7.754
				h38.637c4.283,0,7.754,3.472,7.754,7.754v16.506C241.809,367.027,238.337,370.498,234.055,370.498z"/>
			<path fill="#F991C5" d="M316.582,370.498h-38.637c-4.283,0-7.754-3.472-7.754-7.754v-16.506c0-4.283,3.472-7.754,7.754-7.754
				h38.637c4.283,0,7.754,3.472,7.754,7.754v16.506C324.336,367.027,320.865,370.498,316.582,370.498z"/>
		</g>
		<g display="none">
			<path display="inline" fill="#FFFFFF" d="M329.636,359.732l-20.516-1.838c-1.869-0.167-3.433,1.397-3.266,3.266l1.838,20.516
				c0.228,2.543,3.32,3.665,5.125,1.859l4.189-4.189l13.771,13.771c1.176,1.176,3.081,1.176,4.256,0l6.045-6.045
				c1.176-1.176,1.176-3.081,0-4.255l-13.771-13.771l4.189-4.189C333.301,363.052,332.179,359.96,329.636,359.732L329.636,359.732z"
				/>
		</g>
		<g display="none">
			<g display="inline">
				<path fill="#2626BC" d="M332.905,397.874c-1.763,0-3.527-0.672-4.869-2.015l-11.03-11.03l-1.448,1.447
					c-1.911,1.912-4.677,2.526-7.218,1.604c-2.541-0.922-4.269-3.167-4.511-5.859l-1.838-20.516
					c-0.182-2.039,0.543-4.038,1.99-5.484c1.445-1.447,3.434-2.171,5.484-1.99l20.516,1.838c2.692,0.242,4.937,1.97,5.859,4.511
					c0.922,2.54,0.307,5.306-1.604,7.218l-1.447,1.448l11.03,11.03c2.685,2.685,2.685,7.054,0,9.739l-6.045,6.045
					C336.433,397.202,334.669,397.874,332.905,397.874L332.905,397.874z M317.006,375.469c1.028,0,2.015,0.408,2.741,1.136
					l13.158,13.158l4.818-4.818l-13.158-13.158c-0.728-0.727-1.136-1.713-1.136-2.741s0.408-2.015,1.136-2.741l2.876-2.877
					l-17.632-1.58l1.58,17.632l2.877-2.876C314.992,375.877,315.978,375.469,317.006,375.469z"/>
			</g>
		</g>
		<g>
			<g>
				<path fill="#01ECA5" d="M320.787,318.818h-9.058c-2.141,0-3.877-1.736-3.877-3.877s1.736-3.877,3.877-3.877h9.058
					c2.141,0,3.877,1.736,3.877,3.877S322.929,318.818,320.787,318.818z"/>
			</g>
			<g>
				<path fill="#01ECA5" d="M320.787,330.826h-16.036c-2.141,0-3.877-1.736-3.877-3.877s1.736-3.877,3.877-3.877h16.036
					c2.141,0,3.877,1.736,3.877,3.877C324.664,329.091,322.929,330.826,320.787,330.826z"/>
			</g>
		</g>
		<g>
			<g>
				<path fill="#01ECA5" d="M237.932,318.818h-9.058c-2.141,0-3.877-1.736-3.877-3.877s1.736-3.877,3.877-3.877h9.058
					c2.141,0,3.877,1.736,3.877,3.877S240.073,318.818,237.932,318.818z"/>
			</g>
			<g>
				<path fill="#01ECA5" d="M237.932,330.826h-16.036c-2.141,0-3.877-1.736-3.877-3.877s1.736-3.877,3.877-3.877h16.036
					c2.141,0,3.877,1.736,3.877,3.877C241.809,329.091,240.073,330.826,237.932,330.826z"/>
			</g>
		</g>
	</g>
</g>
</svg>
