<svg xmlns="http://www.w3.org/2000/svg" width="512" height="512" xml:space="preserve"><linearGradient id="a" gradientUnits="userSpaceOnUse" x1="-613.206" y1="80.374" x2="-56.247" y2="58.292" gradientTransform="matrix(1 0 0 -1 582 338)"><stop offset=".049" style="stop-color:#ffdbed"/><stop offset=".999" style="stop-color:#d2deff"/></linearGradient><path fill="url(#a)" d="M482.969 160.336c-34.945-35.948-89.48-40.907-129.831-14.878a50.941 50.941 0 0 1-38.717 6.927c-31.565-7.009-64.584-2.222-92.707 13.042-18.907 10.261-41.936 8.477-59.579-3.83-11.712-8.169-25.312-14.023-40.257-16.777C66.44 134.603 12.541 171.373 1.884 226.727-9.015 283.336 28.512 337.739 85.08 347.816c13.821 2.462 27.488 2.047 40.388-.816 20.936-4.646 42.81 3.122 56.321 19.776 8.528 10.512 18.812 19.894 30.757 27.689 61.731 40.28 144.427 22.89 184.707-38.84l.128-.196c7.377-11.349 18.851-19.44 32.12-22.119 19.353-3.907 37.801-13.404 52.756-28.495 39.373-39.732 39.701-104.371.712-144.479z"/><path fill="#01ECA5" d="M384.208 69.735a5 5 0 0 1-5-5c0-3.309-2.691-6-6-6a5 5 0 1 1 0-10c3.309 0 6-2.691 6-6a5 5 0 1 1 10 0c0 3.309 2.691 6 6 6a5 5 0 1 1 0 10c-3.309 0-6 2.691-6 6a5 5 0 0 1-5 5z"/><path fill="#6583FE" d="M92.521 463.346a5 5 0 0 1-5-5c0-3.309-2.692-6-6.001-6a5 5 0 1 1 0-10 6.007 6.007 0 0 0 6.001-6 5 5 0 1 1 10 0c0 3.309 2.691 6 5.999 6a5 5 0 1 1 0 10 6.006 6.006 0 0 0-5.999 6 5 5 0 0 1-5 5z"/><path fill="#FF5BA8" d="M435.751 85.735a4.983 4.983 0 0 1-3.535-1.464l-11-11a5 5 0 0 1 0-7.071l11-11a5 5 0 0 1 7.07 0l11 11a5 5 0 0 1 0 7.071l-11 11a4.983 4.983 0 0 1-3.535 1.464zm-3.929-16 3.929 3.929 3.929-3.929-3.929-3.929-3.929 3.929zM60.52 77.068a4.983 4.983 0 0 1-3.535-1.464l-11-11a5 5 0 0 1 0-7.071l11-11a5 5 0 0 1 7.07 0l11 11a5 5 0 0 1 0 7.071l-11 11a4.986 4.986 0 0 1-3.535 1.464zm-3.93-16 3.929 3.929 3.929-3.929-3.929-3.929-3.929 3.929z"/><path fill="#CAFFEB" d="m256 165.373-15.016 20.021H105.839v140.151c0 5.506 4.505 10.011 10.011 10.011h270.29V165.373H256z"/><path fill="#6583FE" d="M125.86 205.416H256v70.075H125.86v-70.075z"/><path fill="#FF5BA8" d="M406.161 357.079v3.504h-29.682l-.25.3c-8.559-7.308-18.57-12.964-29.582-16.418l6.056-12.113c1.902-3.854 3.654-7.808 5.156-11.813a119.412 119.412 0 0 0 4.505-14.365 51.801 51.801 0 0 1 23.776 10.161c12.163 9.46 20.021 24.176 20.021 40.744z"/><path fill="#FFF" d="M266.261 360.583c8.459-7.158 18.37-12.714 29.231-16.117 8.059-2.553 16.668-3.904 25.577-3.904 8.91 0 17.519 1.351 25.577 3.904 11.012 3.454 21.023 9.11 29.582 16.418 18.32 15.617 29.932 38.842 29.932 64.77h-20.02c0-8.809-1.752-17.219-4.955-24.877a65.208 65.208 0 0 0-14.115-21.123 65.182 65.182 0 0 0-21.123-14.115c-7.658-3.203-16.067-4.955-24.877-4.955-8.809 0-17.219 1.752-24.877 4.955a65.208 65.208 0 0 0-21.123 14.115 65.182 65.182 0 0 0-14.115 21.123c-3.203 7.658-4.955 16.067-4.955 24.877h-20.021c-.001-26.13 11.762-49.455 30.282-65.071z"/><path fill="#FF5BA8" d="M386.14 135.341v30.032H256l-15.016 20.021H105.839V135.34c0-5.506 4.505-10.011 10.011-10.011h260.28c5.505.001 10.01 4.506 10.01 10.012z"/><path fill="#E6E9ED" d="M362.364 306.174a119.412 119.412 0 0 1-4.505 14.365H284.28a119.412 119.412 0 0 1-4.505-14.365c-2.503-9.961-3.754-20.272-3.754-30.633 0-19.171 4.305-37.991 12.563-55.109h64.97c8.259 17.118 12.564 35.939 12.564 55.109 0 10.361-1.251 20.673-3.754 30.633z"/><path fill="#CCD1D9" d="M357.809 320.54h.05c-1.502 4.004-3.254 7.959-5.156 11.813l-6.056 12.113c-8.059-2.553-16.668-3.904-25.577-3.904-8.91 0-17.519 1.351-25.577 3.904l-6.056-12.113c-1.902-3.854-3.654-7.808-5.156-11.813H357.809z"/><path fill="#FF5BA8" d="M353.555 220.432h-64.97c2.953-6.157 6.457-12.113 10.411-17.819l6.307-9.01c3.604-5.156 9.51-8.209 15.767-8.209s12.163 3.053 15.767 8.209l6.307 9.01c3.954 5.706 7.458 11.662 10.411 17.819z"/><path fill="#01ECA5" d="M386.14 425.652c0-35.939-29.131-65.07-65.07-65.07S256 389.714 256 425.652h130.14z"/><path fill="#FCD770" d="M341.091 425.652h-40.043c0-11.062 8.96-20.021 20.021-20.021 11.063 0 20.022 8.96 20.022 20.021z"/><circle fill="#01ECA5" cx="321.07" cy="265.48" r="25.027"/><path fill="#FF5BA8" d="m289.436 332.352 6.056 12.113c-10.862 3.404-20.772 8.96-29.231 16.117h-30.283v-3.504a51.468 51.468 0 0 1 4.705-21.523c7.108-15.417 21.673-26.729 39.092-29.382a119.412 119.412 0 0 0 4.505 14.365c1.502 4.006 3.254 7.96 5.156 11.814z"/><path fill="#F9F9F9" d="M205.946 145.351h20.021v20.021h-20.021v-20.021zM165.903 145.351h20.021v20.021h-20.021v-20.021zM125.86 145.351h20.021v20.021H125.86v-20.021z"/><path fill="#2626BC" d="M411.167 357.074c0-16.938-7.753-32.465-20.021-42.936V135.341c0-8.279-6.737-15.016-15.016-15.016H115.85c-8.279 0-15.016 6.737-15.016 15.016v190.204c0 8.279 6.737 15.016 15.016 15.016h117.681c-1.637 5.256-2.558 10.797-2.558 16.513v8.514h23.135c-14.33 15.962-23.135 36.98-23.135 60.065v5.005h180.194v-5.005c0-23.085-8.804-44.102-23.135-60.065h23.135v-8.514zM115.849 130.335h260.28a5.013 5.013 0 0 1 5.005 5.005v25.027H253.497l-15.016 20.021H110.844V135.34a5.014 5.014 0 0 1 5.005-5.005zm0 200.215a5.01 5.01 0 0 1-5.005-5.005V190.4h132.642l15.016-20.022h122.632V307.29c-4.014-2.152-8.299-3.864-12.829-4.995 1.827-8.814 2.818-17.794 2.818-26.779 0-27.244-8.259-53.442-23.881-75.761l-6.317-9.025a24.247 24.247 0 0 0-19.856-10.341 24.24 24.24 0 0 0-19.851 10.336l-6.317 9.025c-15.627 22.324-23.886 48.522-23.886 75.766 0 8.985.991 17.969 2.818 26.774-15.687 3.929-28.651 14.481-36.079 28.26H115.849zm228.125 8.069c-7.328-1.932-14.976-3.063-22.905-3.063-7.928 0-15.577 1.131-22.905 3.063l-4.245-8.494c-.751-1.507-1.437-3.043-2.122-4.58h58.548c-.691 1.537-1.371 3.073-2.122 4.58l-4.249 8.494zm10.342-23.085h-66.491c-4.45-12.849-6.797-26.433-6.797-40.018 0-17.459 3.749-34.422 10.817-50.079h58.453c7.063 15.657 10.817 32.62 10.817 50.079-.002 13.585-2.35 27.169-6.799 40.018zm-57.412-100.107c1.917-3.384 3.944-6.717 6.197-9.936l6.317-9.025a14.225 14.225 0 0 1 23.305 0l6.317 9.03c2.252 3.218 4.28 6.552 6.197 9.931h-48.333zm-20.692 96.598c2.232 7.773 5.141 15.352 8.754 22.579l3.564 7.128c-8.719 3.394-16.798 8.059-23.961 13.845h-23.555c.671-20.677 15.311-38.556 35.198-43.552zm-12.344 95.353 9.045 3.744 3.829-9.25-9.005-3.729a60.22 60.22 0 0 1 7.513-11.237l6.887 6.887 7.078-7.078-6.887-6.887a60.137 60.137 0 0 1 11.237-7.513l3.729 9.005 9.25-3.834-3.744-9.04c4.24-1.356 8.684-2.227 13.269-2.608v9.76h10.011v-9.755c4.585.38 9.03 1.251 13.269 2.608l-3.744 9.04 9.25 3.834 3.729-9.005a60.22 60.22 0 0 1 11.237 7.513l-6.887 6.887 7.078 7.078 6.887-6.887a60.137 60.137 0 0 1 7.513 11.237l-9.005 3.729 3.829 9.25 9.045-3.744c1.356 4.24 2.227 8.684 2.613 13.269h-35.288c-2.012-9.796-9.74-17.524-19.531-19.521v-15.522h-10.011v15.522c-9.791 1.997-17.519 9.725-19.516 19.516H261.26c.381-4.585 1.252-9.035 2.608-13.269zm57.202 3.258c6.517 0 12.023 4.2 14.095 10.011H306.98c2.067-5.811 7.573-10.011 14.09-10.011zm69.82 10.011c-2.583-36.304-32.87-65.07-69.82-65.07s-67.237 28.766-69.82 65.07h-10.111c2.593-41.835 37.455-75.081 79.931-75.081s77.338 33.246 79.931 75.081H390.89zm-13.314-65.07c-7.163-5.786-15.241-10.451-23.961-13.845l3.564-7.128c3.614-7.228 6.522-14.806 8.754-22.579 19.881 4.995 34.527 22.88 35.203 43.552h-23.56z"/><path fill="#FFF" d="M120.855 290.507h10.011v10.011h-10.011v-10.011zM140.876 290.507h90.097v10.011h-90.097v-10.011zM120.855 310.529h110.118v10.011H120.855v-10.011z"/></svg>