<?xml version="1.0" encoding="utf-8"?>
<!-- Generator: Adobe Illustrator 17.0.0, SVG Export Plug-In . SVG Version: 6.00 Build 0)  -->
<!DOCTYPE svg PUBLIC "-//W3C//DTD SVG 1.1//EN" "http://www.w3.org/Graphics/SVG/1.1/DTD/svg11.dtd">
<svg version="1.1" id="Layer_1" xmlns="http://www.w3.org/2000/svg" xmlns:xlink="http://www.w3.org/1999/xlink" x="0px" y="0px"
	 width="612px" height="792px" viewBox="0 0 612 792" enable-background="new 0 0 612 792" xml:space="preserve">
<g>
	<polygon fill="#BACDDF" points="475.139,422.965 394.684,376.262 394.684,406.366 475.146,452.937 	"/>
	<polygon fill="#FFFFFF" points="477.841,328.474 394.684,376.262 475.139,422.965 558.412,375.106 	"/>
	<polygon fill="#A6BBCD" points="558.415,375.105 475.139,422.965 475.146,452.937 558.415,404.76 	"/>
</g>
<g>
	<polygon fill="#BACDDF" points="475.139,373.729 394.684,327.026 394.684,357.13 475.146,403.701 	"/>
	<polygon fill="#FFFFFF" points="477.841,279.237 394.684,327.026 475.139,373.729 558.412,325.87 	"/>
	<polygon fill="#A6BBCD" points="558.415,325.869 475.139,373.729 475.146,403.701 558.415,355.524 	"/>
</g>
<g>
	<polygon fill="#BACDDF" points="339.069,501.753 258.614,455.05 258.614,485.153 339.076,531.725 	"/>
	<polygon fill="#FFFFFF" points="341.772,407.262 258.614,455.05 339.069,501.753 422.343,453.894 	"/>
	<polygon fill="#A6BBCD" points="422.345,453.893 339.069,501.753 339.076,531.725 422.345,483.547 	"/>
</g>
<g>
	<polygon fill="#BACDDF" points="339.069,452.516 258.614,405.813 258.614,435.917 339.076,482.488 	"/>
	<polygon fill="#FFFFFF" points="341.772,358.025 258.614,405.813 339.069,452.516 422.343,404.657 	"/>
	<polygon fill="#A6BBCD" points="422.345,404.657 339.069,452.516 339.076,482.488 422.345,434.311 	"/>
</g>
<g>
	<polygon fill="#BACDDF" points="203,580.541 122.544,533.838 122.544,563.941 203.006,610.513 	"/>
	<polygon fill="#FFFFFF" points="205.702,486.049 122.544,533.838 203,580.541 286.273,532.681 	"/>
	<polygon fill="#A6BBCD" points="286.275,532.681 203,580.541 203.006,610.513 286.275,562.336 	"/>
</g>
<g>
	<polygon fill="#BACDDF" points="203,531.304 122.544,484.601 122.544,514.705 203.006,561.277 	"/>
	<polygon fill="#FFFFFF" points="205.702,436.813 122.544,484.601 203,531.304 286.273,483.445 	"/>
	<polygon fill="#A6BBCD" points="286.275,483.444 203,531.304 203.006,561.277 286.275,513.099 	"/>
</g>
<g>
	<path fill="#1E75BB" d="M228.102,501.805l-5.055-2.919c-3.639,1.432-7.667,2.38-11.832,2.845l0.023,4.121l-12.272,0.005
		l-0.031-4.126c-4.163-0.47-8.202-1.418-11.849-2.845l-5.022,2.918l-8.714-5.031l5.022-2.918c-2.475-2.108-4.125-4.445-4.95-6.854
		l-7.115,0l-0.04-7.113l7.115,0c0.798-2.41,2.422-4.746,4.873-6.863l-5.048-2.914l8.649-5.027l5.047,2.914
		c3.639-1.423,7.675-2.376,11.825-2.841l-0.015-4.125h12.279l0.016,4.125c4.17,0.466,8.209,1.414,11.857,2.841l5.022-2.918
		l8.714,5.03l-5.022,2.919c2.475,2.108,4.126,4.444,4.943,6.858l7.13,0l0.032,7.109l-7.122,0.004
		c-0.783,2.41-2.415,4.751-4.866,6.859l5.055,2.918L228.102,501.805z M193.631,490.04c6.309,3.643,16.505,3.643,22.773,0
		c6.269-3.642,6.235-9.548-0.074-13.191c-6.309-3.642-16.505-3.642-22.774,0C187.288,480.492,187.321,486.397,193.631,490.04"/>
</g>
<polygon fill="#EE4137" points="347.92,383.998 355.745,400.706 363.568,417.419 334.69,412.942 305.821,408.464 326.87,396.231 "/>
<g>
	<path fill="#8FA4B5" d="M446.362,322.287c-4.352-2.512-2.386-6.176,5.88-10.979c3.979-2.312,7.652-3.79,10.983-4.455
		c3.35-0.655,5.976-0.422,7.895,0.686c0.969,0.56,1.684,1.204,2.107,1.932c0.423,0.729,0.755,1.447,0.978,2.164l7.608-1.858
		c-0.463-1.32-1.144-2.428-1.987-3.336c-0.844-0.908-1.924-1.721-3.24-2.482c-3.986-2.301-8.712-3.156-14.194-2.575
		c-5.482,0.602-11.121,2.586-16.917,5.954c-5.795,3.368-9.221,6.609-10.242,9.723c-1.04,3.125,0.47,5.849,4.511,8.183
		c2.743,1.583,5.573,2.544,8.491,2.882l5.904-3.431C450.856,324.187,448.263,323.385,446.362,322.287z"/>
	<path fill="#8FA4B5" d="M482.5,331.492c0.703-1.489,0.655-3.368-0.122-5.627c-0.593-1.668-0.801-2.966-0.605-3.885
		c0.195-0.919,0.901-1.732,2.119-2.439c1.217-0.707,2.472-1.098,3.766-1.172c1.294-0.074,2.48,0.19,3.559,0.813
		c0.988,0.57,1.738,1.214,2.234,1.922c0.496,0.707,0.919,1.415,1.251,2.132l7.535-1.816c-1.016-2.354-2.904-4.328-5.647-5.912
		c-2.889-1.667-6.083-2.48-9.601-2.428c-3.499,0.042-6.774,0.972-9.826,2.745c-1.599,0.929-2.815,1.869-3.574,2.819
		c-0.76,0.95-1.228,1.943-1.423,2.966c-0.158,1.024-0.024,2.281,0.477,3.79c0.575,1.72,0.728,3.093,0.515,4.107
		c-0.194,1.024-0.901,1.879-2.1,2.576c-1.199,0.697-2.473,1.056-3.839,1.088c-1.348,0.042-2.663-0.317-3.943-1.056
		c-2.249-1.298-3.827-3.22-4.79-5.796l-6.576,3.822c0.995,1.984,3.029,3.874,6.175,5.69c3.2,1.848,6.522,2.734,10.002,2.681
		c3.481-0.053,6.884-1.056,10.208-2.988C480.384,334.311,481.78,332.97,482.5,331.492z"/>
	<path fill="#8FA4B5" d="M517.399,327.523c-2.889-1.668-6.083-2.481-9.6-2.428c-3.481,0.052-6.774,0.971-9.827,2.745
		c-1.598,0.929-2.796,1.879-3.574,2.819c-0.76,0.95-1.228,1.942-1.423,2.967c-0.158,1.023-0.006,2.29,0.477,3.79
		c0.575,1.721,0.728,3.093,0.533,4.118c-0.213,1.013-0.919,1.868-2.118,2.565c-1.199,0.697-2.473,1.055-3.821,1.098
		c-1.367,0.031-2.663-0.317-3.943-1.056c-2.249-1.299-3.845-3.231-4.789-5.796l-6.576,3.822c0.977,1.974,3.029,3.874,6.156,5.68
		c3.2,1.847,6.54,2.745,10.003,2.682c3.481-0.053,6.901-1.046,10.226-2.978c2.09-1.214,3.467-2.565,4.188-4.044
		c0.703-1.489,0.674-3.357-0.122-5.627c-0.593-1.668-0.782-2.955-0.587-3.874c0.177-0.928,0.883-1.741,2.1-2.449
		c1.217-0.707,2.473-1.098,3.766-1.172c1.294-0.074,2.48,0.19,3.577,0.824c0.988,0.57,1.72,1.203,2.216,1.911
		c0.496,0.707,0.919,1.415,1.252,2.133l7.535-1.816C522.03,331.081,520.142,329.106,517.399,327.523z"/>
</g>
</svg>
