<svg xmlns="http://www.w3.org/2000/svg" width="512" height="512" xml:space="preserve"><linearGradient id="a" gradientUnits="userSpaceOnUse" x1="-164.468" y1="490.248" x2="284.534" y2="173.739" gradientTransform="matrix(1 0 0 -1 194 617)"><stop offset="0" style="stop-color:#ffdbed"/><stop offset="1" style="stop-color:#dcfdee"/></linearGradient><path fill="url(#a)" d="m382.606 174.018-.577-.002c-32.034-.05-62.385-13.844-83.44-37.986-31.366-35.964-77.6-58.622-129.121-58.393C75.956 78.052-1.195 156.618.014 250.123c1.203 92.986 76.955 167.995 170.227 167.995 26.343 0 51.286-5.987 73.547-16.672 19.194-9.213 42.065-6.784 58.968 6.161 21.863 16.745 49.19 26.713 78.846 26.763 71.382.119 129.981-58.02 130.396-129.401.418-72.05-57.442-130.527-129.392-130.951z"/><path opacity=".1" fill="#2626BC" d="M455.491 145.639c0-43.968-35.643-79.612-79.612-79.612-33.531 0-62.199 20.74-73.931 50.082H62.433c-9.357 0-16.942 7.585-16.942 16.941v220.846c0 9.357 7.585 16.942 16.942 16.942H370.88c9.357 0 16.942-7.585 16.942-16.942v-129.54c38.302-5.762 67.669-38.808 67.669-78.717z"/><path fill="#9FB0FE" d="M267.477 456.994H165.835l13.247-52.516 7.079-28.052h60.99l7.079 28.052 13.247 52.516z"/><path fill="#8399FE" d="M254.23 404.478h-75.148l7.079-28.052h60.99l7.079 28.052z"/><path fill="#FFF" d="M370.88 391.838H62.433c-9.357 0-16.942-7.585-16.942-16.941V154.051c0-9.357 7.585-16.941 16.942-16.941H370.88c9.357 0 16.942 7.585 16.942 16.941v220.846c0 9.356-7.585 16.941-16.942 16.941z"/><path fill="#FFC4DF" d="M370.88 137.109H259.991v254.729H370.88c9.357 0 16.942-7.585 16.942-16.942V154.051c0-9.357-7.585-16.942-16.942-16.942z"/><path fill="#B7C5FF" d="M165.704 333.452h-29.981a5.123 5.123 0 0 1 0-10.246h29.981a5.123 5.123 0 0 1 0 10.246z"/><path fill="#FFA8CF" d="M203.589 333.452h-12.577a5.123 5.123 0 0 1 0-10.246h12.577a5.123 5.123 0 0 1 0 10.246z"/><path fill="#B7C5FF" d="M203.589 353.772h-67.866a5.123 5.123 0 0 1 0-10.246h67.866a5.123 5.123 0 0 1 0 10.246z"/><path fill="#4369FD" d="M89.409 349.023a5 5 0 0 1-3.535-1.464l-6.978-6.978a5 5 0 1 1 7.07-7.071l3.442 3.442 12.28-12.28a5 5 0 0 1 7.07 7.071l-15.815 15.816a4.996 4.996 0 0 1-3.534 1.464z"/><path fill="#6583FE" d="M387.822 180.278v-26.227c0-9.357-7.585-16.942-16.942-16.942H62.433c-9.356 0-16.942 7.585-16.942 16.942v26.227h342.331z"/><path fill="#B7C5FF" d="M45.491 346.681v28.215c0 9.357 7.585 16.941 16.942 16.941H370.88c9.356 0 16.942-7.585 16.942-16.941v-28.215H45.491z"/><g fill="#2626BC"><path d="M79.619 163.759a5 5 0 0 1-5-5v-.13a5 5 0 1 1 10 0v.13a5 5 0 0 1-5 5zM96.936 163.759a5 5 0 0 1-5-5v-.13a5 5 0 1 1 10 0v.13a5 5 0 0 1-5 5zM114.255 163.759a5 5 0 0 1-5-5v-.13a5 5 0 1 1 10 0v.13a5 5 0 0 1-5 5z"/></g><path fill="#FF7EB8" d="M413.217 218.437v135.19c0 7.98-8.88 12.75-15.53 8.34l-16.28-10.8a10 10 0 0 0-11.05 0l-16.29 10.8c-6.64 4.41-15.52-.36-15.52-8.34v-135.19h74.67z"/><path fill="#FF5BA8" d="M413.217 218.437v32.94c-11.42 5.06-24.06 7.87-37.34 7.87-13.27 0-25.9-2.81-37.33-7.87v-32.94h74.67z"/><circle fill="#97FFD2" cx="375.822" cy="166.662" r="79.6"/><circle fill="#DCFDEE" cx="375.822" cy="166.662" r="58.616"/><path fill="#2626BC" d="M375.88 318.007a5 5 0 0 0 5-5V251.09c44.335-2.598 79.611-39.476 79.611-84.451 0-46.655-37.956-84.612-84.611-84.612-34.359 0-63.978 20.597-77.215 50.082H62.432c-12.099 0-21.941 9.843-21.941 21.941v26.228a5 5 0 0 0 5 5h247.872c5.254 23.268 20.112 42.922 40.184 54.573v101.83H50.491V208.448a5 5 0 1 0-10 0v166.449c0 12.099 9.843 21.941 21.941 21.941h113.422l-13.917 55.151h-13.329a5 5 0 1 0 0 10h136.097a5 5 0 1 0 0-10h-13.329l-13.917-55.151H370.88c12.099 0 21.942-9.843 21.942-21.941v-10.158l2.103 1.394a14.977 14.977 0 0 0 15.383.714 14.98 14.98 0 0 0 7.905-13.216v-89.158a5 5 0 1 0-10 0v89.158c0 2.7-1.843 3.98-2.635 4.405-.793.426-2.876 1.255-5.128-.238l-16.281-10.795a14.974 14.974 0 0 0-16.578 0l-16.282 10.795c-2.246 1.49-4.334.664-5.126.238-.793-.425-2.636-1.706-2.636-4.405V244.816a83.98 83.98 0 0 0 27.333 6.274v61.917a5 5 0 0 0 5 5zM261.063 451.99H172.25l13.917-55.151h60.98l13.916 55.151zm87.485-83.355c2.895 0 5.781-.84 8.287-2.501l16.281-10.795a4.992 4.992 0 0 1 5.527 0l4.179 2.771v16.788c0 6.584-5.357 11.941-11.942 11.941H62.432c-6.585 0-11.941-5.357-11.941-11.941v-23.215h283.056v1.95a14.977 14.977 0 0 0 7.905 13.216 15.012 15.012 0 0 0 7.096 1.786zM50.491 175.278V154.05c0-6.584 5.356-11.941 11.941-11.941h232.475a84.32 84.32 0 0 0-3.639 24.53c0 2.916.148 5.798.438 8.639H50.491zm250.777-8.639a74.216 74.216 0 0 1 5.007-26.824c.35-.541.595-1.152.715-1.81 11.252-26.97 37.889-45.978 68.889-45.978 41.141 0 74.611 33.471 74.611 74.612s-33.471 74.611-74.611 74.611-74.611-33.47-74.611-74.611z"/><path fill="#B7C5FF" d="M165.704 215.731h-29.981a5.123 5.123 0 0 1 0-10.246h29.981a5.123 5.123 0 0 1 0 10.246z"/><path fill="#FFA8CF" d="M203.589 215.731h-12.577a5.123 5.123 0 0 1 0-10.246h12.577a5.123 5.123 0 0 1 0 10.246z"/><path fill="#B7C5FF" d="M203.589 236.05h-67.866a5.123 5.123 0 0 1 0-10.246h67.866a5.123 5.123 0 0 1 0 10.246z"/><path fill="#4369FD" d="M89.409 231.301a5 5 0 0 1-3.535-1.464l-6.978-6.978a5 5 0 1 1 7.07-7.071l3.442 3.442 12.28-12.28a5 5 0 0 1 7.07 7.071l-15.815 15.816a4.996 4.996 0 0 1-3.534 1.464z"/><path fill="#B7C5FF" d="M165.704 274.591h-29.981a5.123 5.123 0 0 1 0-10.246h29.981a5.123 5.123 0 0 1 0 10.246z"/><path fill="#FFA8CF" d="M203.589 274.591h-12.577a5.123 5.123 0 0 1 0-10.246h12.577a5.123 5.123 0 0 1 0 10.246z"/><path fill="#B7C5FF" d="M203.589 294.911h-67.866a5.123 5.123 0 0 1 0-10.246h67.866a5.123 5.123 0 0 1 0 10.246z"/><path fill="#4369FD" d="M89.409 290.162a5 5 0 0 1-3.535-1.464l-6.978-6.978a5 5 0 1 1 7.07-7.071l3.442 3.442 12.28-12.28a5 5 0 0 1 7.07 7.071l-15.815 15.816a4.996 4.996 0 0 1-3.534 1.464z"/><path fill="#2626BC" d="M296.651 275.187a5 5 0 0 1-3.536-8.535l2.306-2.305-2.306-2.306a5 5 0 0 1 7.072-7.071l5.84 5.841a5 5 0 0 1 0 7.07l-5.84 5.84a4.979 4.979 0 0 1-3.536 1.466z"/><path fill="#97FFD2" d="M248.473 218.482h23.038a3.005 3.005 0 0 1 3.005 3.005v85.973a3.005 3.005 0 0 1-3.005 3.005h-23.038a3.005 3.005 0 0 1-3.005-3.005v-85.973a3.005 3.005 0 0 1 3.005-3.005z"/><path fill="#FF7EB8" d="M267.477 96.211a4.984 4.984 0 0 1-3.535-1.464l-11.019-11.018a5 5 0 0 1 0-7.072l11.019-11.018a4.998 4.998 0 0 1 7.07 0l11.018 11.018a5 5 0 0 1 0 7.071l-11.018 11.018a4.982 4.982 0 0 1-3.535 1.465zm-3.947-16.018 3.947 3.947 3.946-3.947-3.946-3.947-3.947 3.947z"/><path fill="#FF5BA8" d="M110.224 461.99a5 5 0 0 1-3.535-1.464l-11.018-11.018a5 5 0 0 1 0-7.071l11.018-11.018a4.998 4.998 0 0 1 7.07 0l11.019 11.018a5 5 0 0 1 0 7.072l-11.019 11.018a5.002 5.002 0 0 1-3.535 1.463zm-3.946-16.018 3.946 3.947 3.947-3.947-3.947-3.947-3.946 3.947z"/><path fill="#6583FE" d="M455.491 260.055a5 5 0 0 1-5-5 6.024 6.024 0 0 0-6.017-6.017 5 5 0 1 1 0-10 6.024 6.024 0 0 0 6.017-6.017 5 5 0 1 1 10 0 6.024 6.024 0 0 0 6.018 6.017 5 5 0 1 1 0 10 6.024 6.024 0 0 0-6.018 6.017 5 5 0 0 1-5 5z"/><path fill="#01ECA5" d="M221.999 82.044a5 5 0 0 1-5-5 6.024 6.024 0 0 0-6.018-6.017 5 5 0 1 1 0-10 6.024 6.024 0 0 0 6.018-6.017 5 5 0 1 1 10 0 6.024 6.024 0 0 0 6.017 6.017 5 5 0 1 1 0 10 6.024 6.024 0 0 0-6.017 6.017 5 5 0 0 1-5 5z"/><path fill="#FF5BA8" d="M365.14 196.509c-2.944 0-5.768-1.17-7.849-3.25l-15.493-15.493c-4.336-4.336-4.336-11.365 0-15.699 4.332-4.334 11.365-4.334 15.697 0l7.642 7.642 27.264-27.264c4.332-4.334 11.365-4.334 15.697 0 4.336 4.336 4.336 11.365 0 15.699l-35.113 35.115a11.089 11.089 0 0 1-7.845 3.25z"/></svg>