<?xml version="1.0" encoding="utf-8"?>
<!-- Generator: Adobe Illustrator 17.0.0, SVG Export Plug-In . SVG Version: 6.00 Build 0)  -->
<!DOCTYPE svg PUBLIC "-//W3C//DTD SVG 1.1//EN" "http://www.w3.org/Graphics/SVG/1.1/DTD/svg11.dtd">
<svg version="1.1" id="Layer_5" xmlns="http://www.w3.org/2000/svg" xmlns:xlink="http://www.w3.org/1999/xlink" x="0px" y="0px"
	 width="512px" height="512px" viewBox="0 0 512 512" enable-background="new 0 0 512 512" xml:space="preserve">
<linearGradient id="SVGID_1_" gradientUnits="userSpaceOnUse" x1="-613.206" y1="80.3744" x2="-56.247" y2="58.2924" gradientTransform="matrix(1 0 0 -1 582 338)">
	<stop  offset="0.0485" style="stop-color:#FFDBED"/>
	<stop  offset="0.9993" style="stop-color:#D2DEFF"/>
</linearGradient>
<path fill="url(#SVGID_1_)" d="M482.969,160.336c-34.945-35.948-89.48-40.907-129.831-14.878
	c-11.48,7.405-25.381,9.888-38.717,6.927c-31.565-7.009-64.584-2.222-92.707,13.042c-18.907,10.261-41.936,8.477-59.579-3.83
	c-11.712-8.169-25.312-14.023-40.257-16.777C66.44,134.603,12.541,171.373,1.884,226.727
	C-9.015,283.336,28.512,337.739,85.08,347.816c13.821,2.462,27.488,2.047,40.388-0.816c20.936-4.646,42.81,3.122,56.321,19.776
	c8.528,10.512,18.812,19.894,30.757,27.689c61.731,40.28,144.427,22.89,184.707-38.84c0.043-0.065,0.085-0.131,0.128-0.196
	c7.377-11.349,18.851-19.44,32.12-22.119c19.353-3.907,37.801-13.404,52.756-28.495C521.63,265.083,521.958,200.444,482.969,160.336
	z"/>
<path fill="#01ECA5" d="M384.208,69.735c-2.762,0-5-2.239-5-5c0-3.309-2.691-6-6-6c-2.762,0-5-2.239-5-5s2.238-5,5-5
	c3.309,0,6-2.691,6-6c0-2.761,2.238-5,5-5s5,2.239,5,5c0,3.309,2.691,6,6,6c2.762,0,5,2.239,5,5s-2.238,5-5,5c-3.309,0-6,2.691-6,6
	C389.208,67.497,386.969,69.735,384.208,69.735z"/>
<path fill="#6583FE" d="M92.521,463.346c-2.762,0-5-2.239-5-5c0-3.309-2.692-6-6.001-6c-2.762,0-5-2.239-5-5s2.238-5,5-5
	c3.309,0,6.001-2.691,6.001-6c0-2.761,2.238-5,5-5c2.762,0,5,2.239,5,5c0,3.309,2.691,6,5.999,6c2.762,0,5,2.239,5,5s-2.238,5-5,5
	c-3.308,0-5.999,2.691-5.999,6C97.521,461.107,95.283,463.346,92.521,463.346z"/>
<path fill="#FF5BA8" d="M435.751,85.735c-1.279,0-2.56-0.488-3.535-1.464l-11-11c-1.953-1.953-1.953-5.119,0-7.071l11-11
	c1.951-1.952,5.119-1.952,7.07,0l11,11c1.953,1.953,1.953,5.119,0,7.071l-11,11C438.311,85.247,437.03,85.735,435.751,85.735z
	 M431.822,69.735l3.929,3.929l3.929-3.929l-3.929-3.929L431.822,69.735z"/>
<path fill="#FF5BA8" d="M60.52,77.068c-1.279,0-2.56-0.488-3.535-1.464l-11-11c-1.953-1.953-1.953-5.119,0-7.071l11-11
	c1.951-1.952,5.119-1.952,7.07,0l11,11c1.953,1.953,1.953,5.119,0,7.071l-11,11C63.078,76.58,61.799,77.068,60.52,77.068z
	 M56.59,61.068l3.929,3.929l3.929-3.929l-3.929-3.929L56.59,61.068z"/>
<g>
	<g>
		<g>
			<path fill="#CAFFEB" d="M256,165.373l-15.016,20.021H105.839v140.151c0,5.506,4.505,10.011,10.011,10.011h270.29V165.373H256z"/>
		</g>
		<g>
			<path fill="#6583FE" d="M125.86,205.416H256v70.075H125.86V205.416z"/>
		</g>
		<g>
			<path fill="#FF5BA8" d="M406.161,357.079v3.504h-29.682l-0.25,0.3c-8.559-7.308-18.57-12.964-29.582-16.418l6.056-12.113
				c1.902-3.854,3.654-7.808,5.156-11.813c1.802-4.705,3.304-9.46,4.505-14.365c8.859,1.351,17.018,4.955,23.776,10.161
				C398.303,325.795,406.161,340.511,406.161,357.079z"/>
		</g>
		<g>
			<path fill="#FFFFFF" d="M266.261,360.583c8.459-7.158,18.37-12.714,29.231-16.117c8.059-2.553,16.668-3.904,25.577-3.904
				c8.91,0,17.519,1.351,25.577,3.904c11.012,3.454,21.023,9.11,29.582,16.418c18.32,15.617,29.932,38.842,29.932,64.77H386.14
				c0-8.809-1.752-17.219-4.955-24.877c-3.304-7.959-8.109-15.116-14.115-21.123c-6.006-6.006-13.164-10.812-21.123-14.115
				c-7.658-3.203-16.067-4.955-24.877-4.955c-8.809,0-17.219,1.752-24.877,4.955c-7.959,3.304-15.116,8.109-21.123,14.115
				c-6.006,6.006-10.812,13.164-14.115,21.123c-3.203,7.658-4.955,16.067-4.955,24.877h-20.021
				C235.978,399.524,247.741,376.199,266.261,360.583L266.261,360.583z"/>
		</g>
		<g>
			<path fill="#FF5BA8" d="M386.14,135.341v30.032H256l-15.016,20.021H105.839v-50.054c0-5.506,4.505-10.011,10.011-10.011h260.28
				C381.635,125.33,386.14,129.835,386.14,135.341z"/>
		</g>
		<g>
			<path fill="#E6E9ED" d="M362.364,306.174c-1.201,4.905-2.703,9.66-4.505,14.365h-0.05H284.33h-0.05
				c-1.802-4.705-3.304-9.46-4.505-14.365c-2.503-9.961-3.754-20.272-3.754-30.633c0-19.171,4.305-37.991,12.563-55.109h0.05h64.87
				h0.05c8.259,17.118,12.564,35.939,12.564,55.109C366.118,285.902,364.867,296.214,362.364,306.174L362.364,306.174z"/>
		</g>
		<g>
			<path fill="#CCD1D9" d="M357.809,320.54h0.05c-1.502,4.004-3.254,7.959-5.156,11.813l-6.056,12.113
				c-8.059-2.553-16.668-3.904-25.577-3.904c-8.91,0-17.519,1.351-25.577,3.904l-6.056-12.113
				c-1.902-3.854-3.654-7.808-5.156-11.813h0.05H357.809z"/>
		</g>
		<g>
			<path fill="#FF5BA8" d="M353.555,220.432h-0.05h-64.87h-0.05c2.953-6.157,6.457-12.113,10.411-17.819l6.307-9.01
				c3.604-5.156,9.51-8.209,15.767-8.209s12.163,3.053,15.767,8.209l6.307,9.01C347.098,208.319,350.602,214.275,353.555,220.432
				L353.555,220.432z"/>
		</g>
		<g>
			<path fill="#01ECA5" d="M386.14,425.652c0-35.939-29.131-65.07-65.07-65.07S256,389.714,256,425.652H386.14z"/>
		</g>
		<g>
			<path fill="#FCD770" d="M341.091,425.652h-40.043c0-11.062,8.96-20.021,20.021-20.021
				C332.132,405.631,341.091,414.591,341.091,425.652z"/>
		</g>
		<g>
			<circle fill="#01ECA5" cx="321.07" cy="265.48" r="25.027"/>
		</g>
		<g>
			<path fill="#FF5BA8" d="M289.436,332.352l6.056,12.113c-10.862,3.404-20.772,8.96-29.231,16.117h-30.283v-3.504
				c0-7.708,1.702-14.966,4.705-21.523c7.108-15.417,21.673-26.729,39.092-29.382c1.201,4.905,2.703,9.66,4.505,14.365
				C285.782,324.544,287.534,328.498,289.436,332.352z"/>
		</g>
		<g>
			<path fill="#F9F9F9" d="M205.946,145.351h20.021v20.021h-20.021V145.351z"/>
		</g>
		<g>
			<path fill="#F9F9F9" d="M165.903,145.351h20.021v20.021h-20.021V145.351z"/>
		</g>
		<g>
			<path fill="#F9F9F9" d="M125.86,145.351h20.021v20.021H125.86V145.351z"/>
		</g>
	</g>
	<g>
		<path fill="#2626BC" d="M411.167,357.074c0-16.938-7.753-32.465-20.021-42.936V135.341c0-8.279-6.737-15.016-15.016-15.016
			h-260.28c-8.279,0-15.016,6.737-15.016,15.016v190.204c0,8.279,6.737,15.016,15.016,15.016h117.681
			c-1.637,5.256-2.558,10.797-2.558,16.513v8.514h23.135c-14.33,15.962-23.135,36.98-23.135,60.065v5.005h180.194v-5.005
			c0-23.085-8.804-44.102-23.135-60.065h23.135V357.074z M115.849,130.335h260.28c2.758,0,5.005,2.247,5.005,5.005v25.027H253.497
			l-15.016,20.021H110.844v-45.048C110.844,132.583,113.091,130.335,115.849,130.335z M115.849,330.55
			c-2.758,0-5.005-2.242-5.005-5.005V190.4h132.642l15.016-20.022h122.632V307.29c-4.014-2.152-8.299-3.864-12.829-4.995
			c1.827-8.814,2.818-17.794,2.818-26.779c0-27.244-8.259-53.442-23.881-75.761l-6.317-9.025
			c-4.53-6.477-11.953-10.341-19.856-10.341c-7.903,0-15.326,3.864-19.851,10.336l-6.317,9.025
			c-15.627,22.324-23.886,48.522-23.886,75.766c0,8.985,0.991,17.969,2.818,26.774c-15.687,3.929-28.651,14.481-36.079,28.26
			H115.849z M343.974,338.619c-7.328-1.932-14.976-3.063-22.905-3.063c-7.928,0-15.577,1.131-22.905,3.063l-4.245-8.494
			c-0.751-1.507-1.437-3.043-2.122-4.58h58.548c-0.691,1.537-1.371,3.073-2.122,4.58L343.974,338.619z M354.316,315.534h-66.491
			c-4.45-12.849-6.797-26.433-6.797-40.018c0-17.459,3.749-34.422,10.817-50.079h58.453c7.063,15.657,10.817,32.62,10.817,50.079
			C361.113,289.101,358.765,302.685,354.316,315.534L354.316,315.534z M296.904,215.427c1.917-3.384,3.944-6.717,6.197-9.936
			l6.317-9.025c2.658-3.799,7.013-6.067,11.653-6.067c4.64,0,8.995,2.267,11.652,6.067l6.317,9.03
			c2.252,3.218,4.28,6.552,6.197,9.931H296.904z M276.212,312.025c2.232,7.773,5.141,15.352,8.754,22.579l3.564,7.128
			c-8.719,3.394-16.798,8.059-23.961,13.845h-23.555C241.685,334.9,256.325,317.021,276.212,312.025L276.212,312.025z
			 M263.868,407.378l9.045,3.744l3.829-9.25l-9.005-3.729c2.087-4.029,4.6-7.798,7.513-11.237l6.887,6.887l7.078-7.078l-6.887-6.887
			c3.434-2.908,7.203-5.426,11.237-7.513l3.729,9.005l9.25-3.834l-3.744-9.04c4.24-1.356,8.684-2.227,13.269-2.608v9.76h10.011
			v-9.755c4.585,0.38,9.03,1.251,13.269,2.608l-3.744,9.04l9.25,3.834l3.729-9.005c4.029,2.087,7.798,4.6,11.237,7.513l-6.887,6.887
			l7.078,7.078l6.887-6.887c2.908,3.434,5.426,7.203,7.513,11.237l-9.005,3.729l3.829,9.25l9.045-3.744
			c1.356,4.24,2.227,8.684,2.613,13.269h-35.288c-2.012-9.796-9.74-17.524-19.531-19.521v-15.522h-10.011v15.522
			c-9.791,1.997-17.519,9.725-19.516,19.516h-35.288C261.641,416.062,262.512,411.612,263.868,407.378L263.868,407.378z
			 M321.07,410.636c6.517,0,12.023,4.2,14.095,10.011H306.98C309.047,414.836,314.553,410.636,321.07,410.636z M390.89,420.647
			c-2.583-36.304-32.87-65.07-69.82-65.07s-67.237,28.766-69.82,65.07h-10.111c2.593-41.835,37.455-75.081,79.931-75.081
			s77.338,33.246,79.931,75.081H390.89z M377.576,355.577c-7.163-5.786-15.241-10.451-23.961-13.845l3.564-7.128
			c3.614-7.228,6.522-14.806,8.754-22.579c19.881,4.995,34.527,22.88,35.203,43.552H377.576z"/>
		<path fill="#FFFFFF" d="M120.855,290.507h10.011v10.011h-10.011V290.507z"/>
		<path fill="#FFFFFF" d="M140.876,290.507h90.097v10.011h-90.097V290.507z"/>
		<path fill="#FFFFFF" d="M120.855,310.529h110.118v10.011H120.855V310.529z"/>
	</g>
</g>
</svg>
